<svg width="24" height="24" fill="none" xmlns="http://www.w3.org/2000/svg"><path fill-rule="evenodd" clip-rule="evenodd" d="M16.996 5.222C16.889 2.338 14.716 0 12 0 9.214 0 7 2.46 7 5.444V8H5.113c-.953 0-1.751.695-1.844 1.606L2.01 22.05a1.708 1.708 0 00-.009.172C2 23.204 2.83 24 3.853 24h16.294c.06 0 .12-.003.18-.008 1.018-.095 1.763-.965 1.664-1.942l-1.26-12.444C20.637 8.695 19.84 8 18.886 8H17V5.444l-.004-.222zM15 8V5.444C15 3.52 13.632 2 12 2c-1.576 0-2.905 1.417-2.995 3.247L9 5.444V8h6zm5 14l-1.238-12H5.238L4 22h16z" fill="#1B2437"/></svg>