<svg width="25" height="24" fill="none" xmlns="http://www.w3.org/2000/svg"><path fill-rule="evenodd" clip-rule="evenodd" d="M20.858 8.704c-.038-.85-.175-1.435-.372-1.941a3.904 3.904 0 00-.926-1.419 3.938 3.938 0 00-1.416-.922c-.51-.197-1.091-.334-1.941-.372C15.346 4.01 15.074 4 12.9 4c-2.172 0-2.444.01-3.298.047-.85.037-1.435.175-1.941.372a3.905 3.905 0 00-1.42.925A3.94 3.94 0 005.32 6.76c-.197.51-.334 1.09-.372 1.94-.04.857-.05 1.13-.05 3.302s.01 2.444.047 3.297c.038.85.175 1.435.372 1.941.203.538.52 1.019.925 1.42.4.405.885.721 1.417.921.51.197 1.09.335 1.941.372.854.038 1.126.047 3.298.047 2.173 0 2.445-.01 3.298-.047.85-.037 1.435-.175 1.942-.372a4.092 4.092 0 002.341-2.34c.197-.51.335-1.092.372-1.942.038-.853.047-1.125.047-3.297 0-2.173-.003-2.445-.04-3.298zm-1.442 6.533c-.034.781-.165 1.203-.275 1.484a2.655 2.655 0 01-1.52 1.52c-.28.109-.705.24-1.484.274-.844.038-1.097.047-3.232.047-2.136 0-2.392-.009-3.233-.047-.782-.034-1.204-.165-1.485-.275a2.463 2.463 0 01-.92-.597 2.488 2.488 0 01-.596-.919c-.11-.28-.241-.706-.275-1.484-.038-.844-.047-1.097-.047-3.232 0-2.135.01-2.391.047-3.232.034-.781.165-1.203.275-1.485.128-.347.331-.662.6-.919.26-.265.572-.469.92-.597.28-.109.706-.24 1.484-.275.844-.037 1.097-.047 3.233-.047 2.138 0 2.391.01 3.232.047.782.035 1.204.166 1.485.275.347.128.663.332.92.597.265.26.468.572.596.92.11.28.241.706.275 1.484.038.844.047 1.097.047 3.232 0 2.135-.01 2.385-.047 3.229zm-6.571-6.96a3.948 3.948 0 000 7.894 3.947 3.947 0 000-7.894zm0 6.507a2.56 2.56 0 110-5.12 2.56 2.56 0 010 5.12zm4.102-5.741a.921.921 0 100-1.843.921.921 0 000 1.843z" fill="#D1D1D6"/></svg>