<svg width="24" height="24" fill="none" xmlns="http://www.w3.org/2000/svg"><path d="M21 7.657a7.963 7.963 0 01-2.126.558 3.545 3.545 0 001.623-1.952c-.713.407-1.5.694-2.34.855A3.777 3.777 0 0015.462 6c-2.043 0-3.688 1.587-3.688 3.533 0 .28.025.55.085.806-3.068-.143-5.782-1.55-7.606-3.695a3.441 3.441 0 00-.505 1.786c0 1.223.658 2.307 1.64 2.935a3.77 3.77 0 01-1.668-.435v.039c0 1.716 1.28 3.142 2.956 3.47a3.84 3.84 0 01-.967.117c-.236 0-.475-.013-.699-.06.479 1.399 1.835 2.427 3.449 2.46a7.627 7.627 0 01-4.576 1.507c-.303 0-.593-.013-.883-.048A10.729 10.729 0 008.661 20c6.79 0 10.503-5.385 10.503-10.052a8.52 8.52 0 00-.014-.457A7.197 7.197 0 0021 7.657z" fill="#D1D1D6"/></svg>