<svg width="72" height="34" fill="none" xmlns="http://www.w3.org/2000/svg"><path fill-rule="evenodd" clip-rule="evenodd" d="M72 8a8 8 0 00-8-8H8a8 8 0 00-8 8v18a8 8 0 008 8h56a8 8 0 008-8V8zM8 2h56l.225.004A6 6 0 0170 8v18l-.004.225A6 6 0 0164 32H8l-.225-.004A6 6 0 012 26V8l.004-.225A6 6 0 018 2z" fill="#E5E5EA"/><rect width="36" height="34" rx="8" fill="#fff"/><path fill-rule="evenodd" clip-rule="evenodd" d="M25 8a2 2 0 012 2v4a2 2 0 01-2 2h-4a2 2 0 01-2-2v-4a2 2 0 012-2h4zm-8 12a2 2 0 00-2-2h-4a2 2 0 00-2 2v4a2 2 0 002 2h4a2 2 0 002-2v-4zm10 0a2 2 0 00-2-2h-4a2 2 0 00-2 2v4a2 2 0 002 2h4a2 2 0 002-2v-4zm-2 0h-4v4h4v-4zm-14 0h4v4h-4v-4zm6-10a2 2 0 00-2-2h-4a2 2 0 00-2 2v4a2 2 0 002 2h4a2 2 0 002-2v-4zm8 0h-4v4h4v-4zm-14 0h4v4h-4v-4z" fill="#EDA3B5"/><path fill-rule="evenodd" clip-rule="evenodd" d="M59.111 10c.491 0 .889.448.889 1 0 .513-.343.935-.785.993L59.11 12H44.89c-.491 0-.889-.448-.889-1 0-.513.343-.935.785-.993L44.89 10h14.22zm0 6c.491 0 .889.448.889 1 0 .513-.343.936-.785.993L59.11 18H44.89c-.491 0-.889-.448-.889-1 0-.513.343-.936.785-.993L44.89 16h14.22zM60 23c0-.552-.398-1-.889-1H44.89l-.104.007c-.442.057-.785.48-.785.993 0 .552.398 1 .889 1h14.22l.104-.007c.442-.057.785-.48.785-.993z" fill="#E5E5EA"/></svg>